Coordinates
version=1
nRows=26
nColumns=24
inDegrees=yes

Units are S.I. units (second, meters, Newtons, ...)
Angles are in degrees.

endheader
time	pelvis_tilt	pelvis_list	pelvis_rotation	pelvis_tx	pelvis_ty	pelvis_tz	hip_flexion_r	hip_adduction_r	hip_rotation_r	knee_angle_r	ankle_angle_r	subtalar_angle_r	mtp_angle_r	hip_flexion_l	hip_adduction_l	hip_rotation_l	knee_angle_l	ankle_angle_l	subtalar_angle_l	mtp_angle_l	lumbar_extension	lumbar_bending	lumbar_rotation
      7.04000000	      0.44450497	      3.14337983	      6.24157659	     -0.74793993	      0.69008728	      0.05863523	     19.15829473	      1.78531303	      1.67463927	     -0.01476035	      9.73170494	     -7.20958751	      0.00000000	    -14.83195816	      9.19979249	     13.08670267	    -19.30565402	     16.80197193	     -0.54814249	      0.00000000	    -17.91320418	     -3.07155313	    -13.77405505
      7.05000000	      0.18227315	      2.63744463	      5.96038359	     -0.73566862	      0.68954635	      0.05894984	     19.70746356	      2.64756504	      2.08385712	     -1.84840390	      9.02202427	     -8.85150372	      0.00000000	    -13.81745099	      8.50925698	     10.49756558	    -22.02067718	     16.08917722	      2.19634879	      0.00000000	    -17.14486734	     -2.52851817	    -13.42991160
      7.06000000	      0.18496241	      2.00152677	      5.47186884	     -0.72332958	      0.68944380	      0.05947317	     20.09008172	      3.72489774	      2.38429517	     -4.02490958	      8.26420032	    -10.02591626	      0.00000000	    -12.93073573	      7.61686631	      7.93638918	    -24.90634001	     14.86123566	      4.72207324	      0.00000000	    -16.70075025	     -1.81008184	    -12.74720542
      7.07000000	      0.05656033	      1.32152654	      4.97111524	     -0.71100357	      0.68929878	      0.05995034	     20.60509431	      4.80686839	      2.93278685	     -6.30791546	      7.40353864	    -11.13326962	      0.00000000	    -11.63289638	      6.62443909	      5.45909999	    -28.16125231	     13.09193063	      6.85994874	      0.00000000	    -16.08758866	     -1.00430496	    -12.13536621
      7.08000000	      0.28702026	      0.53828884	      4.48112021	     -0.69876758	      0.68968072	      0.06036239	     20.71032319	      5.98583771	      3.13993093	     -8.60664855	      6.82129284	    -11.51167702	      0.00000000	    -10.52601344	      5.41167554	      3.24194285	    -31.62682157	     10.85673698	      8.68835815	      0.00000000	    -15.97707622	      0.00679800	    -11.52348406
      7.09000000	      0.34036423	     -0.20519464	      3.99678811	     -0.68676584	      0.68992317	      0.06082801	     20.91555189	      7.09332987	      3.50505330	    -10.76601608	      6.25456659	    -11.85154691	      0.00000000	     -8.95959163	      4.18819146	      1.28991934	    -35.39230588	      8.14332390	     10.10634342	      0.00000000	    -15.71348483	      0.93317043	    -10.91217889
      7.10000000	      0.11898478	     -0.85963542	      3.52551185	     -0.67518496	      0.68990673	      0.06134725	     21.32512776	      8.07598288	      3.98146192	    -12.75321633	      5.78872903	    -12.08355800	      0.00000000	     -6.82140218	      3.03733057	     -0.29272123	    -39.40453509	      5.02661079	     11.05276128	      0.00000000	    -15.21946187	      1.72143427	    -10.45183051
      7.11000000	     -0.06564304	     -1.57204837	      3.22655859	     -0.66380073	      0.68997620	      0.06162934	     21.48074742	      9.02761919	      4.12974169	    -14.32178633	      5.68638647	    -12.03432167	      0.00000000	     -4.50985115	      1.77977820	     -1.46053390	    -43.51941016	      1.65976200	     11.38932488	      0.00000000	    -14.81124000	      2.61054326	    -10.02968060
      7.12000000	      0.20915008	     -2.37956333	      3.02483410	     -0.65267756	      0.69063445	      0.06177633	     20.86184983	     10.04848135	      4.17542665	    -15.34550249	      5.81689598	    -11.93739585	      0.00000000	     -2.56935176	      0.39801482	     -2.27730244	    -47.54642906	     -1.73830409	     11.19251704	      0.00000000	    -15.05740723	      3.64619364	     -9.54783534
      7.13000000	     -0.23233120	     -3.10117103	      2.90613087	     -0.64216245	      0.69038594	      0.06189486	     20.92329830	     10.90624037	      4.28157373	    -16.13006798	      6.11623335	    -11.94407665	      0.00000000	      0.44556240	     -0.80686597	     -2.68708044	    -51.73307028	     -4.86011530	     10.52895073	      0.00000000	    -14.51850427	      4.52195617	     -9.25514775
      7.14000000	     -0.31243227	     -3.93823047	      2.75422024	     -0.63173509	      0.69062528	      0.06203934	     20.31750305	     11.89960972	      4.33106147	    -16.39758277	      6.57977430	    -11.88891720	      0.00000000	      3.07730213	     -2.11716624	     -2.93202792	    -55.64909010	     -7.46987183	      9.61881106	      0.00000000	    -14.43647767	      5.52034784	     -8.77047673
      7.15000000	     -0.41176230	     -4.78515694	      2.60819136	     -0.62147322	      0.69090164	      0.06215168	     19.50596496	     12.89687384	      4.53393309	    -16.25816499	      7.11836371	    -11.95783330	      0.00000000	      5.76183170	     -3.34928105	     -2.92476505	    -59.32946594	     -9.33484956	      8.45438370	      0.00000000	    -14.34264150	      6.51090783	     -8.22559437
      7.16000000	     -0.40699766	     -5.59287689	      2.41420174	     -0.61134001	      0.69145297	      0.06229174	     18.38782934	     13.86424553	      4.81795958	    -15.78764390	      7.63890110	    -12.06294656	      0.00000000	      8.29407901	     -4.45783497	     -2.76585837	    -62.67183103	    -10.35049627	      7.19596003	      0.00000000	    -14.39770657	      7.41695932	     -7.51288483
      7.17000000	     -0.50604514	     -6.30247160	      2.23114965	     -0.60116140	      0.69201859	      0.06239286	     17.16846698	     14.71881267	      5.44552805	    -15.00591390	      8.16109939	    -12.34090249	      0.00000000	     10.87223242	     -5.34896181	     -2.41467854	    -65.65439978	    -10.41245927	      5.88906991	      0.00000000	    -14.24508237	      8.19497960	     -6.89332084
      7.18000000	     -0.35533385	     -6.85177573	      1.91000633	     -0.59103763	      0.69308014	      0.06255044	     15.58387948	     15.42079298	      6.09295722	    -14.14061448	      8.82817695	    -12.28790861	      0.00000000	     12.99386923	     -6.02258077	     -2.14089551	    -68.13825589	     -9.49326162	      4.68352436	      0.00000000	    -14.43719373	      8.74541165	     -6.07625640
      7.19000000	     -0.42768301	     -7.24010715	      1.66201464	     -0.58100952	      0.69407137	      0.06271091	     14.08145998	     15.93995698	      7.32992143	    -13.02124499	      8.86733525	    -13.16756436	      0.00000000	     15.30582392	     -6.42043291	     -1.68205447	    -70.22829087	     -7.92517724	      3.50309367	      0.00000000	    -14.32140324	      9.07967273	     -5.39036350
      7.20000000	     -0.27378172	     -7.41968527	      1.31118164	     -0.57103411	      0.69550433	      0.06285265	     12.37072605	     16.20548487	      8.23434892	    -12.03585097	      9.36374764	    -13.19134570	      0.00000000	     17.17279454	     -6.59735628	     -1.40469354	    -71.77480145	     -5.88514851	      2.33569047	      0.00000000	    -14.49977694	      9.16689511	     -4.62668831
      7.21000000	     -0.15863423	     -7.33901669	      0.88360674	     -0.56094882	      0.69709886	      0.06318720	     10.50080622	     16.20456084	     10.02697006	    -10.79351310	      9.22428968	    -14.27494730	      0.00000000	     18.86926065	     -6.48648878	     -1.19348752	    -72.76880786	     -3.56934253	      1.38995941	      0.00000000	    -14.57851696	      8.88267138	     -3.78183977
      7.22000000	      0.03729452	     -7.13446272	      0.54020397	     -0.55109974	      0.69883667	      0.06329131	      8.62573807	     15.99003443	     11.58376690	     -9.63815360	      9.10268014	    -15.11332281	      0.00000000	     20.40020804	     -6.20851407	     -0.99922945	    -73.31813374	     -1.34454665	      0.18547332	      0.00000000	    -14.80983137	      8.51214638	     -3.15117706
      7.23000000	      0.10291145	     -6.75832333	      0.06221443	     -0.54135275	      0.70041924	      0.06352798	      6.97141480	     15.56762581	     13.05260320	     -8.62600458	      9.17332217	    -15.65736340	      0.00000000	     21.92443482	     -5.80595068	     -0.99963982	    -73.42795296	      0.71020721	     -0.98662548	      0.00000000	    -14.88900180	      7.91094523	     -2.42966463
      7.24000000	      0.14193180	     -6.27372514	     -0.40779902	     -0.53172634	      0.70193631	      0.06367858	      5.39437953	     14.98113226	     14.50721528	     -7.64324141	      9.13909940	    -16.28147150	      0.00000000	     23.36259672	     -5.28683449	     -1.04667461	    -73.11788627	      2.43814555	     -2.26927928	      0.00000000	    -14.96428265	      7.20603939	     -1.76793956
      7.25000000	      0.18622709	     -5.77438647	     -0.87741614	     -0.52220124	      0.70323946	      0.06385427	      3.86221662	     14.35086851	     15.96813889	     -6.69069523	      9.12649291	    -17.02974487	      0.00000000	     24.71713553	     -4.80856266	     -1.16815903	    -72.49466311	      3.83960316	     -3.57520334	      0.00000000	    -15.06391091	      6.48141806	     -1.15669928
      7.26000000	      0.12657140	     -5.22443869	     -1.38554240	     -0.51275382	      0.70431894	      0.06398324	      2.56587576	     13.64844783	     17.06557765	     -5.89325070	      9.23733740	    -17.44431414	      0.00000000	     26.05407243	     -4.29417394	     -1.35402595	    -71.49783633	      4.89685483	     -4.95159043	      0.00000000	    -15.05605774	      5.71429451	     -0.52358862
      7.27000000	      0.12964263	     -4.73954156	     -1.93886097	     -0.50349404	      0.70520977	      0.06403326	      1.25544161	     12.97474386	     18.47977865	     -5.15986284	      9.26822641	    -18.08896695	      0.00000000	     27.23636720	     -3.86791989	     -1.56329309	    -70.23493069	      5.67739630	     -6.31064961	      0.00000000	    -15.22182828	      5.06923776	      0.15380096
      7.28000000	      0.06353205	     -4.27054088	     -2.48384393	     -0.49414814	      0.70578888	      0.06412567	      0.10445999	     12.32666500	     19.52248684	     -4.53106931	      9.47689149	    -18.53726538	      0.00000000	     28.37175631	     -3.50952855	     -1.82018157	    -68.67847413	      6.27602571	     -7.56616831	      0.00000000	    -15.25347077	      4.42490948	      0.74060105
      7.29000000	      0.01177229	     -3.87224952	     -3.04670715	     -0.48489934	      0.70612044	      0.06414115	     -0.97505976	     11.73691203	     20.61162850	     -4.03332300	      9.77837082	    -18.96400900	      0.00000000	     29.39084163	     -3.22219170	     -2.04442047	    -66.87628398	      6.75074155	     -8.65644547	      0.00000000	    -15.36079764	      3.89000049	      1.37091980
